<svg width="62" height="131" viewBox="0 0 62 131" fill="none" xmlns="http://www.w3.org/2000/svg">
<path d="M39.1403 23.2217C40.0803 26.3817 41.9703 29.2517 44.6903 31.1517C47.5803 33.1617 51.1603 33.8517 54.5803 33.0517C56.2503 32.6617 58.1003 32.1717 59.6003 31.3117C61.0103 30.5017 61.8303 29.1517 61.8503 27.5217C61.8703 25.8017 61.0203 24.2417 60.0703 22.8617C59.1203 21.4817 57.9803 20.1217 56.6203 19.0817C55.2603 18.0417 53.6503 17.3117 51.9303 17.1017C50.3403 16.9117 48.8203 17.3017 47.3803 17.9517C45.9403 18.6017 44.5903 19.5017 43.1503 20.1817C42.4503 20.5117 41.7303 20.7817 40.9703 20.9317C40.5603 21.0117 40.1603 21.0417 39.7403 21.0417C39.6803 21.0417 39.3203 21.0917 39.2803 21.0417C39.1803 20.9217 39.5303 20.6217 39.6103 20.5517C42.2403 18.0517 45.5703 15.8917 47.0803 12.4517C47.7303 10.9617 48.0103 9.28174 47.5603 7.69174C47.1103 6.10174 46.0203 4.84174 44.8303 3.75174C43.5103 2.53174 42.0703 1.36174 40.4803 0.531741C39.8503 0.201741 39.0803 -0.208259 38.3703 0.121741C38.0403 0.271741 37.8203 0.671741 37.4303 0.651741C37.1103 0.631741 36.7903 0.341741 36.4803 0.241741C35.8503 0.0417409 35.3703 0.301741 35.0103 0.811741C34.4103 1.67174 33.8703 2.58174 33.3103 3.46174C32.3303 4.99174 31.1403 6.56174 30.7303 8.37174C30.3203 10.1817 30.8503 11.9517 31.5103 13.5717C32.1703 15.1917 33.0103 16.5817 34.0803 17.8917C34.6403 18.5717 35.4003 19.1417 35.9103 19.8517C36.1103 20.1417 36.1503 20.3917 35.8003 20.5917C35.6203 20.6917 35.2703 20.6717 35.0703 20.6917C34.5103 20.7417 33.9403 20.7617 33.3803 20.7917C31.6603 20.8617 29.9003 20.9517 28.3303 21.7517C26.7603 22.5517 26.0303 23.8217 25.6503 25.4217C25.1803 27.4017 24.8003 29.4117 24.4003 31.4017C24.2303 32.2717 24.0703 33.1817 24.2703 34.0717C24.3603 34.5017 24.5603 34.8817 24.7003 35.2917C24.8403 35.7017 24.8203 36.1317 24.9603 36.5317C25.1803 37.1517 25.7303 37.3717 26.3403 37.4217C27.3603 37.5117 28.3903 37.4917 29.4103 37.5217C30.4303 37.5517 31.4403 37.5817 32.4603 37.6117C33.4803 37.6417 34.4403 37.7517 35.3903 37.5117C36.9103 37.1417 38.2103 35.9217 39.0303 34.6317C41.0403 31.4417 39.9203 27.8517 38.2903 24.7717C37.8403 23.9217 36.7203 21.4917 35.4003 22.6117C34.8603 23.0617 35.0403 23.8017 34.7303 24.3617C34.3603 25.0317 33.4003 25.1317 32.7203 25.0817C28.8103 24.8217 26.0003 21.4017 23.8803 18.4817C23.3903 17.8017 22.5403 16.9217 22.5403 16.0317C22.5403 15.2217 23.2903 14.5917 23.3703 13.7817C23.4203 13.3317 23.2003 12.8417 23.6303 12.5317C24.0003 12.2617 24.5903 12.1517 25.0203 12.0217C25.9003 11.7517 26.8103 11.5417 27.7303 11.4217C31.2503 10.9617 35.0103 11.9617 36.8903 15.1917C37.6603 16.5217 37.9703 18.0717 37.5803 19.5717C37.5303 19.7617 37.6403 19.9917 37.8403 20.0317C38.7903 20.2317 39.7003 19.3717 40.3303 18.7717C41.2703 17.8617 41.8603 16.7717 42.3403 15.5617C43.0003 13.9017 43.5903 12.3217 44.8103 10.9617C45.3003 10.4217 45.8703 9.81174 46.5503 9.49174C47.0003 9.28174 47.4803 9.32174 47.9503 9.27174C48.4203 9.22174 48.8303 9.10174 49.2503 8.94174C50.0803 8.61174 50.9003 8.26174 51.7603 7.99174C52.2003 7.86174 52.6403 7.74174 53.0903 7.63174C53.2803 7.59174 53.5603 7.47174 53.7603 7.49174C54.2403 7.52174 54.1503 7.71174 54.1903 8.06174C54.2503 8.62174 54.4003 9.06174 54.8903 9.38174C55.1603 9.56174 55.4803 9.65174 55.7503 9.82174C56.2003 10.1017 56.3603 10.5517 56.3403 11.0617C56.3103 11.9017 55.8103 12.6917 55.5803 13.4917C55.3303 14.3317 55.2003 15.1917 54.9403 16.0317C54.4103 17.7317 53.5003 19.3317 52.1603 20.5217C50.8203 21.7117 49.0003 22.4517 47.1703 22.3417C45.3403 22.2317 43.6203 21.4817 41.7903 21.5517C41.0403 21.5817 38.7003 21.9617 39.6203 23.2217C40.0203 23.7717 40.8803 24.0817 41.4403 24.4317C42.2403 24.9317 43.0403 25.4517 43.8003 26.0217C46.6303 28.1217 49.1303 30.9917 49.7103 34.5717C49.8603 35.5317 49.9003 36.5117 49.9103 37.4817C49.9303 38.5017 49.8403 39.5017 49.3403 40.4117C48.9403 41.1517 48.3803 41.7817 47.8103 42.3917C47.4903 42.7317 47.1503 43.2317 46.6203 43.0717C46.0903 42.9117 45.8203 42.3617 45.5503 41.9317C45.1203 41.2417 44.5903 40.7317 43.9303 40.2617C43.2703 39.7917 42.5503 39.3917 42.0703 38.7317C41.8003 38.3617 41.6503 37.9117 41.3703 37.5517C41.1203 37.2217 40.7903 37.0017 40.4903 36.7317C39.7803 36.0917 39.3303 35.2417 39.0503 34.3417C38.5303 32.7017 38.3703 30.9117 38.0803 29.2117C37.7903 27.5117 37.4703 25.6617 37.4403 23.8617C37.4403 23.3817 36.6803 23.3817 36.6903 23.8617C36.7203 25.4917 36.9803 27.1217 37.2403 28.7217C37.5003 30.3217 37.7103 32.0017 38.0803 33.6017C38.4503 35.2017 39.1303 36.5217 40.3903 37.6217C41.0403 38.1817 41.2603 39.0417 41.8703 39.6517C42.3903 40.1717 43.0303 40.5417 43.6203 40.9717C44.4003 41.5417 44.7703 42.2417 45.3403 42.9917C45.7403 43.5117 46.3503 43.9517 47.0403 43.8617C47.7703 43.7717 48.3103 43.0017 48.7603 42.4917C49.3303 41.8517 49.8703 41.1617 50.2203 40.3617C50.9603 38.6617 50.7303 36.5017 50.4903 34.7117C50.2503 32.9217 49.5903 31.3417 48.6203 29.8817C47.6103 28.3517 46.3003 27.0417 44.8703 25.9017C44.1603 25.3417 43.4203 24.8117 42.6603 24.3217C42.2603 24.0617 41.8603 23.8117 41.4603 23.5617C41.2303 23.4217 40.1303 22.9717 40.3503 22.6117C40.5003 22.3617 41.4803 22.3317 41.6903 22.3217C42.1903 22.2917 42.7003 22.3317 43.2003 22.4117C44.1703 22.5617 45.1203 22.8317 46.1003 22.9817C47.8203 23.2517 49.4803 23.0417 51.0303 22.2317C52.5803 21.4217 53.8203 20.1117 54.6803 18.6017C55.1203 17.8317 55.4603 17.0017 55.7203 16.1517C55.9903 15.2417 56.1303 14.2917 56.4303 13.3917C56.8603 12.1017 57.7703 10.2817 56.2903 9.27174C56.0203 9.09174 55.7103 8.99174 55.4303 8.82174C54.9903 8.56174 55.0003 8.23174 54.9403 7.77174C54.8703 7.19174 54.6003 6.72174 53.9503 6.72174C53.0703 6.72174 52.0803 7.10174 51.2603 7.37174C50.3503 7.67174 49.5003 8.11174 48.5903 8.39174C47.7303 8.65174 46.8403 8.47174 46.0303 8.93174C45.3203 9.34174 44.7103 9.96174 44.1803 10.5717C43.0203 11.9117 42.3903 13.4417 41.7603 15.0617C41.2503 16.3917 40.6003 17.5617 39.5203 18.5117C39.1803 18.8017 38.5603 19.3917 38.0703 19.2917L38.3303 19.7517C39.0503 16.9717 37.6703 14.1317 35.4803 12.4217C32.8403 10.3617 29.2503 10.2217 26.1003 10.9417C25.3303 11.1217 24.5603 11.3417 23.8103 11.6217C23.2303 11.8417 22.6803 12.1517 22.6103 12.8317C22.5703 13.2417 22.7003 13.6117 22.5603 14.0217C22.4303 14.4017 22.1803 14.7317 22.0203 15.1017C21.7103 15.8017 21.7703 16.4817 22.1103 17.1517C22.4503 17.8217 22.9903 18.4817 23.4503 19.1117C24.0003 19.8617 24.5703 20.6117 25.1803 21.3217C26.3103 22.6417 27.6103 23.8417 29.1303 24.6817C30.3903 25.3817 31.9403 25.9417 33.4003 25.8017C33.9703 25.7517 34.5603 25.5817 35.0003 25.2017C35.5503 24.7217 35.5303 24.1517 35.7303 23.5117C36.1103 22.3117 37.1403 24.1717 37.3403 24.5517C37.8303 25.4417 38.3103 26.3517 38.6803 27.3017C39.3603 29.0217 39.6903 30.8917 39.1303 32.6917C38.6403 34.2417 37.5503 35.6717 36.1003 36.4417C35.1903 36.9317 34.2203 36.9117 33.2203 36.8817C32.1603 36.8517 31.1103 36.8217 30.0503 36.7917C29.1603 36.7617 28.2603 36.7417 27.3703 36.7117C26.9803 36.7017 26.4103 36.7817 26.0403 36.6117C25.5303 36.3817 25.6403 35.7417 25.5103 35.2917C25.4003 34.8817 25.1903 34.5017 25.0703 34.0817C24.9403 33.6017 24.9303 33.1117 24.9803 32.6217C25.0903 31.5617 25.3803 30.5017 25.5903 29.4617C25.7703 28.5817 25.9503 27.7117 26.1303 26.8317C26.3303 25.8717 26.4803 24.8517 26.9703 23.9917C27.8503 22.4517 29.6803 21.8517 31.3403 21.6617C32.2203 21.5617 33.1103 21.5517 34.0003 21.5117C34.7203 21.4817 35.8403 21.5717 36.4703 21.1417C37.8603 20.1917 35.7103 18.5917 35.1103 17.9217C33.9803 16.6717 33.0603 15.2217 32.3903 13.6817C31.6303 11.9417 31.0303 9.94174 31.6303 8.07174C32.1903 6.32174 33.4203 4.76174 34.4003 3.23174C34.6703 2.81174 34.9403 2.39174 35.2103 1.97174C35.4303 1.63174 35.7003 0.911741 36.1903 0.931741C36.4703 0.941741 36.7803 1.20174 37.0403 1.30174C37.3303 1.41174 37.6403 1.47174 37.9403 1.37174C38.2403 1.27174 38.4103 0.941741 38.7003 0.821741C39.1903 0.601741 39.8203 1.02174 40.2303 1.24174C41.0503 1.68174 41.8203 2.21174 42.5503 2.78174C43.8903 3.84174 45.3103 5.00174 46.2203 6.47174C47.1303 7.94174 47.2703 9.67174 46.7403 11.3217C46.1803 13.1117 45.0003 14.5217 43.7203 15.8417C42.4403 17.1617 41.0803 18.3517 39.6903 19.5317C39.2403 19.9117 38.5503 20.3617 38.5203 21.0217C38.4903 21.6117 38.9403 21.8017 39.4503 21.8017C42.5003 21.8317 44.8203 20.0317 47.4503 18.7717C48.9303 18.0617 50.5103 17.6417 52.1603 17.9017C53.9803 18.1917 55.6403 19.1217 56.9803 20.3617C58.2403 21.5217 59.3303 22.9217 60.1703 24.4117C61.0103 25.9017 61.6203 28.0117 60.5003 29.5917C59.5303 30.9617 57.6303 31.3917 56.1103 31.8617C54.2803 32.4317 52.4403 32.8117 50.5203 32.6017C47.0603 32.2117 43.9503 30.2017 41.9603 27.3717C41.0303 26.0517 40.3403 24.5817 39.8803 23.0317C39.7403 22.5717 39.0203 22.7717 39.1603 23.2317L39.1403 23.2217Z" fill="#C6A46B"/>
<path d="M37.3608 62.3217C39.5908 64.4017 38.5108 67.7817 38.3908 70.4217C38.2208 74.0617 38.8508 77.7217 39.3408 81.3117C40.2108 87.7617 40.6308 94.4417 39.5308 100.902C38.8708 104.762 37.5608 108.382 36.1008 112.002C35.0208 114.702 34.0008 117.462 34.1608 120.422C34.2508 122.012 34.5408 123.962 35.4008 125.332C35.7308 125.852 37.1908 127.512 36.4608 128.092C36.2308 128.282 35.8508 128.282 35.7608 128.632C35.6508 129.092 36.2508 129.292 36.4908 128.922C36.6308 128.712 36.5808 128.422 36.5108 128.202C36.3408 127.652 35.9408 127.172 35.5808 126.732C34.7408 125.712 33.7508 124.812 32.7608 123.942C30.0308 121.542 25.6708 118.572 26.4608 114.362C26.9408 111.802 28.7108 109.532 30.3408 107.592C31.2608 106.492 32.2808 105.492 33.1108 104.322C33.7708 103.402 34.3308 102.422 34.8108 101.402C36.8408 97.1217 37.7108 92.2917 38.0008 87.5817C38.1208 85.6017 38.1408 83.6117 37.9708 81.6317C37.8708 80.5217 37.8008 79.2117 37.2808 78.1917C37.0008 77.6417 36.3708 77.3517 35.9908 77.9717C35.6608 78.5117 35.5908 79.2517 35.4708 79.8617C34.9608 82.6017 34.5408 85.3617 33.8708 88.0717C31.7608 96.6017 27.6008 104.792 20.3308 110.042C19.2308 110.842 18.0708 111.562 16.8808 112.212C16.3308 112.512 15.7408 112.752 15.2008 113.062C14.9908 113.182 14.8108 113.322 14.7108 113.552C14.2408 114.572 15.4608 115.882 16.0308 116.592C16.5208 117.202 17.0408 117.792 17.5308 118.402C17.8808 118.842 18.3108 119.312 18.5208 119.842C18.5808 120.002 18.5808 120.082 18.5708 120.092C18.5908 120.072 18.3708 120.142 18.2108 120.142C17.3508 120.162 16.4608 119.882 15.9408 119.172C15.4608 118.522 15.1308 117.422 15.5308 116.662C15.9108 115.952 16.8008 116.212 17.4008 116.472C18.2908 116.862 19.1008 117.432 19.8808 118.002C21.1408 118.912 22.3508 119.882 23.5608 120.852C24.7708 121.822 26.1508 122.792 27.0108 124.122C27.3908 124.712 27.5208 125.332 27.7208 125.982C28.1908 127.512 29.4908 128.512 30.8908 129.152C31.6908 129.522 34.5608 130.822 35.0508 129.372C35.3308 128.542 34.3508 127.432 33.7908 127.002C32.9708 126.372 32.0708 126.522 31.2508 127.062C30.4308 127.602 29.7608 128.152 28.7108 128.152C27.7308 128.152 26.8608 127.602 26.1408 126.982C24.7008 125.742 23.6608 123.952 22.0308 122.932C21.7308 122.742 21.4008 122.602 21.0508 122.542C20.2108 122.392 19.3808 122.272 18.5608 122.052C17.4408 121.742 16.3508 121.292 15.4108 120.592C13.8808 119.452 12.8308 117.792 11.3408 116.602C10.5908 116.002 9.84081 115.662 9.57081 114.692C9.45081 114.242 9.29081 113.232 9.78081 112.922C10.4808 112.482 11.6408 114.002 11.9708 114.392C12.2208 114.692 12.4608 115.002 12.6908 115.322C12.7908 115.462 13.1108 115.822 13.1008 116.012C13.0908 116.182 13.1508 116.062 13.0908 116.142C13.0208 116.222 12.7108 116.192 12.6208 116.192C12.3308 116.192 12.0608 116.132 11.7908 116.022C11.1908 115.792 10.6208 115.402 10.1308 114.992C9.72081 114.642 9.17081 114.202 8.95081 113.692C8.71081 113.152 8.95081 112.372 9.14081 111.842C9.46081 110.942 10.0208 110.122 10.6408 109.402C12.1808 107.612 14.1308 106.142 15.9508 104.662C18.2308 102.812 20.5408 101.012 22.7808 99.1117C24.6708 97.5017 26.6108 95.8217 28.1308 93.8417C29.3808 92.2117 30.8008 90.1617 31.0708 88.0817C31.2308 86.8317 30.3908 84.7317 28.8408 85.6117C28.2208 85.9717 27.7108 86.5417 27.2408 87.0717C26.5708 87.8317 25.9608 88.6317 25.3508 89.4417C23.8708 91.4217 22.4608 93.4517 20.9708 95.4117C19.7408 97.0317 18.4608 98.6517 16.8408 99.9017C15.0108 101.312 13.0808 102.592 11.1908 103.922C9.40081 105.182 7.57081 106.382 6.39081 108.282C5.90081 109.062 5.23081 110.282 5.45081 111.242C5.57081 111.772 5.87081 112.262 6.15081 112.722C6.86081 113.892 7.74081 114.972 8.39081 116.182C8.47081 116.332 8.52081 116.582 8.61081 116.712C8.65081 116.762 8.58081 116.742 8.62081 116.732C8.74081 116.722 8.70081 116.582 8.73081 116.612C8.68081 116.562 8.24081 116.472 8.11081 116.412C7.69081 116.222 7.28081 115.992 6.88081 115.752C6.27081 115.392 5.67081 115.012 5.07081 114.622C4.78081 114.432 4.64081 114.402 4.68081 114.052C4.71081 113.762 4.83081 113.472 4.93081 113.202C5.23081 112.302 5.48081 111.482 4.68081 110.782C3.93081 110.122 2.93081 109.832 2.14081 109.242C1.29081 108.612 0.750813 107.642 0.750813 106.582C0.750813 104.962 1.83081 103.502 2.89081 102.372C4.27081 100.902 5.90081 99.6917 7.58081 98.5817C10.2408 96.8317 13.0808 95.3117 15.9808 94.0017C20.0508 92.1717 22.1508 87.6417 24.0208 83.8817C24.6508 82.6117 25.2908 81.3517 26.0108 80.1317C26.3208 79.6117 26.6508 79.0917 27.0108 78.5917C27.4708 77.9417 28.0008 77.4117 28.5208 76.8217C29.4708 75.7417 30.0208 74.3417 30.0308 72.8917C30.0308 71.7417 29.6908 70.6517 29.2708 69.5917C28.3908 67.4117 27.2108 65.3817 26.2808 63.2417C25.7108 61.9317 25.9808 60.3817 26.1608 59.0117C26.4208 56.9917 26.8208 54.9817 27.1108 52.9717C27.2208 52.1717 27.3408 51.3717 27.3608 50.5617C27.3808 50.0617 27.4008 49.4617 27.1608 49.0017C26.6108 47.9517 24.7308 49.0217 25.4508 49.9017C25.7508 50.2717 26.2608 50.4917 26.6608 50.7117C27.2108 51.0017 27.7208 51.3317 28.2608 51.6317C29.4208 52.2917 30.7808 52.6717 32.0908 52.2517C32.6708 52.0617 33.1908 51.7517 33.6608 51.3817C34.1908 50.9717 34.6608 50.6517 34.5708 49.9317C34.4408 48.8717 33.5408 48.1017 33.3408 47.0517C33.2308 46.4717 33.5108 45.7917 32.8008 45.5517C32.5708 45.4717 32.3208 45.4917 32.0908 45.4017C31.8508 45.3017 31.6208 45.1317 31.4208 44.9717C30.6808 44.3717 30.1208 43.5817 29.4008 42.9817C28.8008 42.4817 28.0608 42.1617 27.3308 42.6017C26.2708 43.2417 25.8808 44.6517 25.5908 45.7617C25.3608 46.6317 25.0408 47.4717 24.5308 48.2217C24.2708 48.6017 23.9108 48.9417 23.7508 49.3817C23.5608 49.9017 23.7108 50.4317 23.9108 50.9317C24.3708 52.0417 25.0308 53.0817 25.6508 54.1117C25.8508 54.4517 26.0108 54.6617 25.9708 55.0617C25.9508 55.2917 25.8808 55.5217 25.7708 55.7217C25.5608 56.0817 25.2108 56.3217 24.8208 56.4417C23.9908 56.7017 22.9908 56.4817 22.3208 55.9317C21.9308 55.6117 21.6808 55.1517 21.5208 54.6817C21.2408 53.8717 21.9108 53.1317 22.7208 53.1317C23.4208 53.1317 24.1908 53.8317 24.6608 54.3117C24.8108 54.4617 25.2108 54.8517 25.0608 55.1017C24.8308 55.5117 23.8908 55.0917 23.6808 54.8817C23.3508 54.5717 23.2808 54.1417 23.7308 53.8717C24.2008 53.5817 24.8808 53.6917 25.3808 53.8417C25.5808 53.9017 25.7908 53.7717 25.8408 53.5817C25.9508 53.2117 25.8508 52.8817 25.5308 52.6517C25.1008 52.3417 24.6408 52.4517 24.1508 52.4917C23.2208 52.5717 22.2908 52.3417 21.5808 51.7217C20.1908 50.5117 19.9308 48.3717 20.4108 46.6817C21.0508 44.4117 22.8908 43.3617 25.0508 42.8217C25.5208 42.7017 26.0008 42.6017 26.4808 42.4917C26.7108 42.4417 27.0808 42.2717 27.2908 42.4517C27.6608 42.7617 27.4908 43.6717 27.4408 44.0717C27.2308 45.6917 26.5908 47.2017 26.2508 48.7817C26.1508 49.2517 26.8708 49.4517 26.9708 48.9817C27.2708 47.5917 29.9108 40.9417 26.5008 41.7117C24.3808 42.1817 22.0708 42.6417 20.6808 44.4717C19.4108 46.1417 19.0808 48.5417 19.8608 50.5017C20.2308 51.4317 20.8708 52.2717 21.7608 52.7617C22.2208 53.0117 22.7208 53.1617 23.2408 53.2317C23.5408 53.2717 23.8508 53.2717 24.1508 53.2517C24.3008 53.2417 25.2208 53.0517 25.1208 53.3917L25.5808 53.1317C24.6708 52.8617 23.3108 52.8317 22.8008 53.8117C22.4008 54.5917 22.9308 55.4017 23.6408 55.7617C24.1608 56.0217 24.9108 56.1217 25.4208 55.7817C26.0708 55.3517 25.8408 54.5917 25.4408 54.0717C24.7108 53.1317 23.3908 52.1117 22.1408 52.4717C20.8008 52.8517 20.4808 54.1817 20.9908 55.3317C21.7108 56.9417 23.7508 57.8017 25.4008 57.0317C26.1908 56.6617 26.6608 55.9317 26.7308 55.0717C26.7908 54.3217 26.3408 53.8217 25.9708 53.1917C25.6008 52.5617 25.2508 51.9717 24.9308 51.3417C24.7008 50.8917 24.3108 50.2417 24.4308 49.7217C24.5308 49.3317 24.9408 48.9517 25.1808 48.6117C25.6708 47.9017 26.0008 47.1017 26.2408 46.2717C26.4608 45.5117 26.6008 44.8017 27.0108 44.1117C27.2408 43.7317 27.5908 43.1417 28.1008 43.1417C28.8808 43.1417 29.6308 44.2717 30.1108 44.7617C30.4108 45.0717 30.7208 45.3817 31.0708 45.6417C31.2508 45.7817 31.4308 45.9017 31.6308 46.0117C31.8808 46.1417 32.1408 46.1417 32.3808 46.2417C32.6508 46.3517 32.5508 46.4017 32.5608 46.6617C32.5608 46.8117 32.5808 46.9517 32.6108 47.1017C32.6608 47.4117 32.7508 47.7017 32.8608 47.9817C33.0808 48.5117 33.4108 48.9617 33.6608 49.4717C33.7408 49.6517 33.8408 49.8517 33.8508 50.0517C33.8608 50.3517 33.6608 50.4317 33.4208 50.6317C32.8608 51.1117 32.2008 51.5117 31.4608 51.6417C29.8808 51.9217 28.6308 50.8817 27.3208 50.2017C26.8908 49.9817 26.4808 49.6617 26.0608 49.4417C25.9508 49.3917 25.9608 49.5117 26.0608 49.5217C26.0908 49.5217 26.1808 49.4417 26.2008 49.4217C26.2908 49.3617 26.3708 49.3317 26.4708 49.2917C26.4408 49.2917 26.4708 49.2317 26.5308 49.3917C26.5908 49.5717 26.6208 49.8217 26.6308 50.0317C26.6608 50.7617 26.5708 51.4917 26.4808 52.2117C26.2208 54.2117 25.8308 56.2017 25.5408 58.2017C25.3308 59.6817 24.9608 61.4517 25.3808 62.9317C25.6108 63.7417 26.0708 64.5117 26.4408 65.2717C27.0108 66.4217 27.5808 67.5617 28.1108 68.7217C28.5608 69.7217 29.0108 70.7517 29.2108 71.8317C29.5408 73.5617 29.0108 75.3417 27.7508 76.5817C25.8208 78.5017 24.6008 81.1017 23.4008 83.5117C21.5108 87.3017 19.4908 91.6017 15.4208 93.4517C12.3508 94.8517 9.35081 96.4617 6.57081 98.3717C4.93081 99.5017 3.31081 100.752 2.00081 102.262C0.960813 103.432 0.0308126 104.872 0.000812596 106.482C-0.0191874 107.452 0.330813 108.422 0.960813 109.162C1.66081 109.982 2.65081 110.392 3.57081 110.912C3.90081 111.102 4.42081 111.372 4.51081 111.772C4.61081 112.252 4.23081 112.922 4.09081 113.372C3.98081 113.732 3.86081 114.162 3.97081 114.532C4.14081 115.102 4.91081 115.402 5.37081 115.692C6.24081 116.242 7.15081 116.852 8.12081 117.202C8.49081 117.332 9.03081 117.472 9.28081 117.062C9.51081 116.702 9.26081 116.222 9.09081 115.882C8.81081 115.332 8.46081 114.822 8.11081 114.312C7.70081 113.692 7.27081 113.082 6.88081 112.452C6.61081 112.022 6.27081 111.522 6.17081 111.012C6.11081 110.702 6.30081 110.162 6.46081 109.762C6.79081 108.912 7.31081 108.132 7.92081 107.452C8.58081 106.712 9.34081 106.132 10.1308 105.562C12.0708 104.162 14.0608 102.822 16.0008 101.422C17.5708 100.282 18.9308 99.0817 20.1708 97.5817C21.7608 95.6617 23.2008 93.6117 24.6608 91.5917C25.8708 89.9217 27.0608 88.1217 28.5808 86.7217C28.7908 86.5317 29.0108 86.3317 29.2608 86.2017C29.3908 86.1317 29.5708 86.0917 29.5908 86.1017C29.9808 86.2117 30.2408 86.8217 30.3108 87.1817C30.4108 87.7517 30.2708 88.3517 30.0908 88.8917C29.4108 90.9517 27.9808 92.9617 26.5208 94.5417C22.7308 98.6717 18.0208 101.912 13.7308 105.492C11.8108 107.092 9.61081 108.822 8.58081 111.172C8.11081 112.252 7.81081 113.512 8.58081 114.502C9.28081 115.402 10.3008 116.202 11.3508 116.652C11.9908 116.932 13.6508 117.302 13.8408 116.262C13.9208 115.832 13.6308 115.402 13.4008 115.062C13.0108 114.482 12.5608 113.912 12.0908 113.402C11.5408 112.802 10.6508 111.932 9.74081 112.132C9.12081 112.272 8.82081 112.872 8.74081 113.442C8.63081 114.182 8.79081 114.992 9.15081 115.642C9.61081 116.462 10.5408 116.872 11.2308 117.472C12.7008 118.752 13.7808 120.432 15.4308 121.502C16.4308 122.152 17.5608 122.572 18.7108 122.852C19.8608 123.132 21.0508 123.072 21.9808 123.802C23.5708 125.032 24.6108 126.852 26.2708 128.022C27.9308 129.192 29.7408 129.072 31.3508 127.902C31.7108 127.642 32.1308 127.312 32.5908 127.302C33.3008 127.282 33.8508 128.042 34.1608 128.592C34.2408 128.732 34.4408 129.022 34.3108 129.172C34.1508 129.352 33.5708 129.222 33.3708 129.182C31.7208 128.902 29.8208 128.052 28.8508 126.632C28.4908 126.102 28.4008 125.512 28.2108 124.922C27.9208 124.022 27.3808 123.262 26.7308 122.592C25.5108 121.322 24.0508 120.272 22.6708 119.182C21.6208 118.352 20.5608 117.522 19.4408 116.782C18.3208 116.042 16.2408 114.652 15.0908 116.002C13.9408 117.352 14.9108 119.692 16.2508 120.452C16.9008 120.822 19.3408 121.452 19.3308 120.052C19.3308 119.552 18.9708 119.062 18.6908 118.672C18.2708 118.092 17.8108 117.552 17.3508 117.012C16.8608 116.432 16.3608 115.852 15.9308 115.222C15.7208 114.912 15.3008 114.342 15.3608 113.962C15.3908 113.772 15.5308 113.742 15.7408 113.632C16.4008 113.312 17.0608 112.982 17.7008 112.622C18.8308 111.992 19.9208 111.282 20.9708 110.512C22.9808 109.032 24.8108 107.312 26.4108 105.392C31.5808 99.2017 34.1608 91.4417 35.5808 83.6117C35.7908 82.4317 35.9808 81.2517 36.1908 80.0717C36.2608 79.6917 36.3308 79.3117 36.4308 78.9317C36.5108 78.6417 36.6208 78.5117 36.6608 78.3117C36.6308 78.4317 36.4208 78.2317 36.5308 78.4117C36.7308 78.7517 36.8308 79.1517 36.9108 79.5417C37.2508 81.0917 37.3108 82.7217 37.3208 84.3117C37.3608 89.0017 36.7608 93.7917 35.2608 98.2417C34.5108 100.472 33.4908 102.672 32.0108 104.522C30.9908 105.802 29.8208 106.972 28.8108 108.272C27.9808 109.342 27.2008 110.472 26.5908 111.682C25.7608 113.342 25.2908 115.212 25.8108 117.042C26.3308 118.872 27.6808 120.352 29.0208 121.642C30.9408 123.492 33.1408 125.052 34.8808 127.082C35.2208 127.482 35.6408 127.962 35.7908 128.462C35.8208 128.552 35.8208 128.572 35.8108 128.562C35.8508 128.622 35.8108 128.592 35.8108 128.582C35.8608 128.522 35.8708 128.422 36.0208 128.392L36.4708 128.742C36.4708 128.802 36.4608 128.852 36.4308 128.902C36.4108 128.862 36.4308 128.982 36.4108 128.932C36.4108 128.962 36.3508 128.942 36.4608 128.912C36.5208 128.892 36.5908 128.862 36.7008 128.802C37.1108 128.582 37.3808 128.212 37.3808 127.732C37.3908 126.662 36.4708 125.702 35.9508 124.842C35.5108 124.112 35.3108 123.162 35.1308 122.332C34.9608 121.552 34.8708 120.762 34.8508 119.962C34.8008 116.972 35.9808 114.182 37.0708 111.462C38.6008 107.662 39.8508 103.812 40.4108 99.7317C41.3308 93.0617 40.7208 86.3217 39.8108 79.6817C39.3408 76.2417 38.8308 72.7117 39.1808 69.2417C39.4408 66.6817 39.9308 63.7417 37.8408 61.7817C37.4908 61.4517 36.9608 61.9817 37.3108 62.3117L37.3608 62.3217Z" fill="#C6A46B"/>
<path d="M31.6006 51.8319C31.4306 51.9119 31.3006 52.1019 31.2106 52.2619C31.0906 52.4719 31.0006 52.7019 30.9206 52.9219C30.7706 53.3619 30.6506 53.9019 30.7906 54.3619C30.8706 54.6219 31.0606 54.8719 31.3506 54.9219C31.5406 54.9519 31.7606 54.8719 31.8106 54.6619C31.8506 54.4819 31.7506 54.2419 31.5506 54.2019C31.5406 54.2019 31.5206 54.1919 31.5006 54.1919C31.4506 54.1919 31.5806 54.2219 31.5306 54.2119C31.5206 54.2119 31.5006 54.1919 31.4906 54.1919C31.5306 54.1919 31.5606 54.2619 31.5206 54.2119C31.4806 54.1619 31.5506 54.2619 31.5406 54.2419C31.5406 54.2319 31.5206 54.2119 31.5206 54.2019C31.4906 54.1519 31.5406 54.1719 31.5206 54.2219C31.5206 54.2119 31.5106 54.1819 31.5006 54.1619C31.5006 54.1419 31.5006 54.1319 31.4906 54.1119C31.4906 54.0919 31.4806 54.0319 31.4906 54.0919C31.5006 54.1519 31.4906 54.0919 31.4906 54.0719C31.4906 54.0519 31.4906 54.0219 31.4906 54.0019C31.4906 53.9119 31.4906 53.8119 31.5006 53.7219C31.5006 53.6419 31.5006 53.7519 31.5006 53.7219C31.5006 53.6919 31.5006 53.6719 31.5106 53.6519C31.5106 53.6019 31.5306 53.5419 31.5406 53.4919C31.5606 53.3819 31.5906 53.2819 31.6206 53.1719C31.6506 53.0719 31.6906 52.9819 31.7206 52.8819C31.7106 52.9019 31.7506 52.8119 31.7206 52.8819C31.7306 52.8619 31.7406 52.8419 31.7506 52.8219C31.7706 52.7819 31.7906 52.7419 31.8106 52.6919C31.8306 52.6519 31.8606 52.6019 31.8806 52.5619C31.8906 52.5419 31.9006 52.5219 31.9106 52.5119C31.9106 52.5019 31.9606 52.4419 31.9206 52.4919C31.8806 52.5419 31.9506 52.4719 31.9606 52.4519C31.9906 52.4119 31.9206 52.5119 31.9306 52.4719C31.9306 52.4719 31.9606 52.4519 31.9706 52.4519C32.1506 52.3619 32.2006 52.1019 32.1006 51.9419C31.9906 51.7519 31.7706 51.7219 31.5906 51.8119L31.6006 51.8319Z" fill="#C6A46B"/>
<path d="M35.0707 37.3316C35.6507 38.4616 36.4307 39.5116 36.8607 40.7016C37.2407 41.7516 37.5207 42.8816 37.7407 43.9716C38.0607 45.5216 38.2507 47.2016 37.7607 48.7316C36.9407 51.3016 34.1807 52.5916 32.0107 53.8316C30.4507 54.7216 28.9107 55.6516 27.4807 56.7216C26.4007 57.5316 25.9607 58.8516 25.8607 60.1616C25.6707 62.6816 26.7707 66.2216 29.4207 67.1116C30.0907 67.3416 30.9907 67.4116 31.6007 66.9916C32.3607 66.4616 32.8607 65.6716 33.1707 64.8116C33.5307 63.8216 33.6407 62.7316 33.6607 61.6816C33.6807 60.9816 33.9207 59.4816 33.1107 59.1316L33.2407 59.6416C33.7507 58.6516 35.0107 57.8916 35.9007 57.2616C36.8507 56.5816 37.7907 55.9116 38.6707 55.1416C40.1507 53.8516 41.6807 52.3516 42.4807 50.5116C43.1407 48.9816 43.0407 47.4116 42.4807 45.8616C41.8307 44.0316 40.9407 42.3016 40.3007 40.4616C39.6607 38.6216 39.0107 36.8516 38.6507 34.9916C38.5607 34.5216 37.8407 34.7216 37.9307 35.1916C38.2307 36.7716 38.7807 38.3216 39.3007 39.8416C39.8807 41.5516 40.5507 43.1916 41.2707 44.8416C41.9907 46.4916 42.5507 48.1816 41.9107 49.9316C41.2707 51.6816 39.7307 53.2016 38.3207 54.4516C37.3107 55.3516 36.2007 56.1116 35.1107 56.9116C34.2307 57.5516 33.0907 58.2816 32.5907 59.2716C32.5107 59.4316 32.5307 59.7016 32.7207 59.7816C33.0007 59.9016 32.9007 60.7816 32.9007 61.0516C32.9007 61.4716 32.9007 61.9016 32.8607 62.3216C32.8007 63.2316 32.6507 64.1816 32.2507 65.0116C31.9107 65.7216 31.3507 66.5016 30.5007 66.5216C29.9107 66.5316 29.3607 66.3416 28.8907 66.0016C26.8207 64.5516 26.0507 61.0516 26.8907 58.7516C27.4207 57.3016 28.9607 56.5316 30.2007 55.7616C31.4407 54.9916 32.7907 54.2516 34.0807 53.4916C36.0307 52.3316 37.9607 50.9316 38.5707 48.6116C38.9907 47.0016 38.7907 45.2816 38.4407 43.6716C38.1907 42.5216 37.9107 41.3016 37.4607 40.2116C36.9907 39.0616 36.2607 38.0416 35.7007 36.9416C35.4807 36.5116 34.8307 36.8916 35.0507 37.3216L35.0707 37.3316Z" fill="#C6A46B"/>
<path d="M41.6911 39.5217C41.9411 40.7517 42.2811 41.9617 42.6911 43.2017C43.3411 45.1717 44.3711 47.1517 44.6111 49.2317C44.7311 50.2417 43.8011 51.3017 43.1811 52.0217C42.5111 52.7917 41.7511 53.4917 40.9711 54.1417C39.2311 55.5817 37.4911 57.0217 35.7111 58.4117C35.3511 58.6917 35.0711 58.8217 35.1411 59.3017C35.1911 59.6517 35.3511 59.9617 35.5811 60.2317C36.0211 60.7517 37.2511 61.2717 37.2111 62.0417L37.7711 61.7217C37.6311 61.6517 37.4911 61.5517 37.3511 61.4917C37.3211 61.4817 37.1411 61.3317 37.2311 61.4517L37.1011 61.9617C36.8511 62.0717 36.8211 61.9217 37.0211 62.0717C37.1111 62.1417 37.2611 62.2617 37.2211 62.1317L37.7711 61.7117C36.2611 60.9117 34.7311 60.1317 33.4411 58.9917C33.0811 58.6717 32.5511 59.2017 32.9111 59.5217C34.2511 60.7017 35.8211 61.5317 37.3911 62.3517C37.6711 62.5017 38.0411 62.2517 37.9411 61.9317C37.8211 61.5417 37.1011 61.1317 36.7111 61.3017C36.5411 61.3817 36.4711 61.6617 36.5811 61.8117C36.7611 62.0717 37.1311 62.2117 37.3911 62.3517C37.6511 62.4917 37.9411 62.3117 37.9511 62.0317C37.9811 61.3117 37.4711 60.8517 36.9411 60.4317C36.6911 60.2317 36.4211 60.0417 36.2011 59.8017C36.1011 59.6917 35.9011 59.4817 35.9011 59.3117C35.9011 59.0917 36.2511 58.9217 36.4211 58.7817C38.2311 57.3617 40.0111 55.9117 41.7711 54.4217C42.5611 53.7617 43.3111 53.0217 43.9611 52.2217C44.5011 51.5517 45.1711 50.7217 45.3311 49.8617C45.4911 49.0017 45.1111 47.9217 44.8611 47.1017C44.5311 46.0417 44.0911 45.0117 43.7211 43.9617C43.1611 42.3617 42.7011 40.8417 42.3911 39.3217C42.2911 38.8517 41.5711 39.0517 41.6711 39.5217H41.6911Z" fill="#C6A46B"/>
</svg>
