<svg width="49" height="86" viewBox="0 0 49 86" fill="none" xmlns="http://www.w3.org/2000/svg">
<mask id="path-1-outside-1_493_19" maskUnits="userSpaceOnUse" x="-0.5" y="7.82593" width="50" height="79" fill="black">
<rect fill="white" x="-0.5" y="7.82593" width="50" height="79"/>
<path d="M20.5448 25.3127C20.1948 23.0827 20.1848 20.7827 20.5148 18.5527C20.6748 17.4727 20.9148 16.4027 21.2348 15.3627C21.4348 14.7127 22.0848 13.7027 21.5148 13.0827C21.2448 12.7927 20.7848 12.7327 20.4348 12.6127C19.9048 12.4427 19.3848 12.2727 18.8648 12.0927C17.7848 11.7227 16.7148 11.3227 15.6448 10.9027C14.5748 10.4827 13.4448 10.0027 12.3548 9.5127C11.7248 9.2227 10.7248 8.4527 10.0648 9.0427C9.7948 9.2827 9.76481 9.6127 9.68481 9.9427C9.57481 10.3927 9.42481 10.8427 9.24481 11.2627C8.90481 12.0627 8.43481 12.8127 7.87481 13.4827C6.74481 14.8227 5.2548 15.8527 3.5848 16.3927C2.8348 16.6327 1.9648 16.6127 1.2548 16.9127C0.984801 17.0227 0.704801 17.2227 0.614801 17.5027C0.554801 17.6827 0.574798 17.9127 0.564798 18.1027C0.474798 20.5027 0.504801 22.9227 0.504801 25.3227C0.504801 29.5727 0.5048 33.8227 0.5348 38.0827C0.5548 42.9427 0.584807 47.7927 0.604807 52.6527C0.634807 56.8727 0.654809 61.0927 0.684809 65.3027C0.704809 67.6427 0.714812 69.9727 0.734812 72.3127C0.734812 72.7027 0.734799 73.0827 0.924799 73.4427C1.4548 74.4527 3.21481 74.1727 4.18481 74.1827C6.91481 74.2227 9.65481 74.1927 12.3848 74.1427C15.4448 74.0827 18.4948 73.9827 21.5548 73.8327C23.8348 73.7127 26.1248 73.5927 28.3848 73.2727C28.7248 73.2227 29.0648 73.1827 29.3948 73.0927C30.0548 72.9227 30.2448 72.5027 30.2148 71.8427C30.1448 69.7727 29.8548 67.7127 29.4548 65.6827C28.6348 61.5427 27.3548 57.5127 26.4548 53.3927C25.5548 49.2727 25.0648 44.8327 25.9548 40.5527C26.1748 39.4627 26.4648 38.3827 26.7848 37.3227C26.9448 36.7927 27.1048 36.2527 27.2748 35.7227C27.4148 35.2627 27.6548 34.7727 27.6148 34.2827C27.5548 33.4027 26.6248 33.1527 25.9748 32.8227C25.1448 32.3927 24.3748 31.8527 23.6948 31.2127C22.2948 29.8927 21.4048 28.3027 20.8048 26.4927C20.6248 25.9427 20.1048 25.5527 19.5148 25.8327C19.1748 25.9927 18.9548 26.4027 18.7248 26.6827C18.4048 27.0727 18.0748 27.4627 17.7448 27.8527C16.4748 29.2927 15.0848 30.6727 13.4148 31.6427C12.5848 32.1327 11.6948 32.5127 10.7548 32.7327C10.0848 32.8927 9.58481 33.0527 9.57481 33.8227C9.52481 37.2427 8.98481 40.6427 8.48481 44.0227C7.68481 49.3727 6.7748 54.6927 5.8148 60.0127C4.9648 64.7627 4.07481 69.5027 3.10481 74.2327C2.82481 75.6027 2.48481 76.9727 2.21481 78.3427C2.07481 79.0427 2.40481 79.4427 3.07481 79.6127C4.17481 79.9027 5.2848 80.1527 6.3948 80.4127C8.6948 80.9527 10.9948 81.4627 13.3048 81.9527C17.9248 82.9227 22.5648 83.7727 27.2248 84.5027C28.3548 84.6827 29.4748 84.8527 30.6048 85.0127C31.1648 85.0927 31.7348 85.1727 32.2948 85.2527C32.8148 85.3227 33.4048 85.4827 33.9248 85.4627C34.8948 85.4227 34.8848 84.2827 35.0248 83.5627C35.2448 82.4027 35.4848 81.2527 35.7248 80.1027C37.6548 70.9127 40.2048 61.8827 43.0948 52.9527C44.5448 48.4627 46.0748 44.0027 47.6248 39.5527C47.8148 39.0127 48.0048 38.4827 48.1848 37.9427C48.3148 37.5727 48.4748 37.2127 48.3048 36.8327C48.1848 36.5627 47.9548 36.3927 47.6748 36.3227C47.1948 36.1927 46.7348 36.1127 46.2848 35.9027C44.5148 35.0727 43.2848 33.4327 42.4748 31.7027C41.5448 29.7127 41.0548 27.5527 40.2048 25.5327C39.5048 23.8727 38.5648 22.3127 37.3348 20.9927C34.7148 18.1827 30.9048 17.0427 27.1748 18.0827C23.4448 19.1227 21.3148 21.9227 19.8648 25.2227L20.5648 25.4127C20.5648 24.9327 19.8148 24.9327 19.8148 25.4127C19.8148 25.7627 20.3548 25.9527 20.5148 25.6027C21.2248 23.9727 22.1148 22.3927 23.3748 21.1127C24.7348 19.7427 26.5048 18.8927 28.4048 18.5727C32.3748 17.8927 35.9248 19.9127 38.0948 23.1627C39.1948 24.8127 39.8648 26.6527 40.4848 28.5227C41.1048 30.3927 41.6948 32.2427 42.8248 33.8227C43.7648 35.1427 45.0248 36.2927 46.5848 36.8227C46.9548 36.9527 47.6148 36.9327 47.5848 37.3927C47.5648 37.6327 47.3848 37.9727 47.3048 38.2027C47.2148 38.4727 47.1148 38.7427 47.0248 39.0127C46.6448 40.0827 46.2748 41.1627 45.9048 42.2427C42.9848 50.6927 40.1948 59.1927 37.8848 67.8327C36.7348 72.1427 35.7048 76.4927 34.8048 80.8627C34.5748 81.9727 34.3548 83.0927 34.1448 84.2027C34.0548 84.6627 33.9748 84.7327 33.4648 84.6627C33.2248 84.6327 32.9848 84.5927 32.7348 84.5627C32.1748 84.4827 31.6048 84.4027 31.0448 84.3227C28.7948 84.0027 26.5448 83.6427 24.2948 83.2627C19.8848 82.5227 15.4848 81.6727 11.1148 80.7127C8.9248 80.2327 6.74481 79.7327 4.57481 79.2027C4.23481 79.1227 3.0148 79.0027 2.9248 78.6027C2.9048 78.5227 2.9848 78.3527 3.0048 78.2727C3.0648 78.0027 3.12481 77.7427 3.18481 77.4727C4.01481 73.7427 4.7248 69.9927 5.4248 66.2427C6.3948 61.0827 7.3148 55.9127 8.1748 50.7427C8.8948 46.3827 9.6048 42.0027 10.0848 37.6027C10.1648 36.8727 10.2348 36.1527 10.2848 35.4227C10.3148 34.9227 10.2648 34.3827 10.3248 33.8827C10.3648 33.5627 10.5448 33.5427 10.8548 33.4727C11.3248 33.3627 11.7848 33.2227 12.2348 33.0427C13.0148 32.7327 13.7548 32.3327 14.4448 31.8727C15.9348 30.8627 17.2248 29.5827 18.4048 28.2227C18.6948 27.8927 18.9748 27.5527 19.2548 27.2127C19.3748 27.0627 19.5348 26.7727 19.6948 26.6627C20.0448 26.4227 20.0948 26.7627 20.1848 27.0527C20.4348 27.8227 20.7648 28.5727 21.1848 29.2727C22.0448 30.7227 23.2248 31.9827 24.6348 32.9127C24.9748 33.1327 25.3248 33.3427 25.6848 33.5227C25.8548 33.6027 26.0248 33.6827 26.1848 33.7627C26.5248 33.9227 26.7848 34.0227 26.8248 34.4227C26.8748 34.9327 26.5548 35.5227 26.4048 36.0027C26.2248 36.5727 26.0548 37.1427 25.8848 37.7227C25.3148 39.7327 24.8748 41.7827 24.7448 43.8727C24.2548 51.9227 27.6748 59.5027 28.9848 67.3127C29.1648 68.3527 29.2948 69.4027 29.3848 70.4627C29.4248 70.9327 29.4548 71.4027 29.4648 71.8727C29.4748 72.2227 29.4348 72.3427 29.1048 72.4127C28.3548 72.5727 27.5848 72.6527 26.8248 72.7327C24.3648 72.9827 21.8948 73.1027 19.4348 73.2127C14.0248 73.4427 8.59481 73.5827 3.18481 73.4527C2.53481 73.4327 1.58481 73.5827 1.48481 72.7427C1.48481 72.6827 1.48481 72.6127 1.48481 72.5527C1.48481 72.2927 1.48481 72.0327 1.48481 71.7727C1.48481 70.7727 1.46481 69.7727 1.46481 68.7627C1.43481 65.3027 1.4148 61.8427 1.3948 58.3827C1.3648 53.8527 1.3348 49.3227 1.3148 44.7927C1.2948 40.2627 1.27481 35.8327 1.26481 31.3527C1.26481 27.9727 1.25481 24.6027 1.26481 21.2227C1.26481 20.2827 1.2748 19.3327 1.3048 18.3927C1.3048 18.1727 1.3448 17.9427 1.3348 17.7327C1.3348 17.6527 1.3348 17.7727 1.3348 17.7727C1.4648 17.7627 1.71481 17.5727 1.88481 17.5427C2.02481 17.5127 2.1748 17.5027 2.3148 17.4827C2.7548 17.4227 3.1848 17.3227 3.6148 17.1927C6.6048 16.3027 9.10481 13.9527 10.1548 11.0127C10.2848 10.6627 10.3248 10.2527 10.4648 9.9127C10.5648 9.6827 10.3448 9.5927 10.9048 9.6927C11.0048 9.7127 11.1348 9.8027 11.2248 9.8427C11.5148 9.9727 11.7948 10.1027 12.0848 10.2327C13.0148 10.6527 13.9448 11.0527 14.8948 11.4327C15.9148 11.8427 16.9548 12.2427 17.9948 12.6027C18.4748 12.7727 18.9648 12.9427 19.4448 13.1027C19.8748 13.2427 20.9448 13.3927 20.9448 13.9127C20.9448 14.1327 20.7548 14.4427 20.6848 14.6527C20.6148 14.8627 20.5448 15.0827 20.4848 15.2927C20.3348 15.7927 20.2048 16.3027 20.0848 16.8227C19.8848 17.7427 19.7348 18.6727 19.6448 19.6027C19.4448 21.5827 19.5148 23.5727 19.8248 25.5427C19.9048 26.0227 20.6248 25.8127 20.5448 25.3427V25.3127Z"/>
</mask>
<path d="M20.5448 25.3127C20.1948 23.0827 20.1848 20.7827 20.5148 18.5527C20.6748 17.4727 20.9148 16.4027 21.2348 15.3627C21.4348 14.7127 22.0848 13.7027 21.5148 13.0827C21.2448 12.7927 20.7848 12.7327 20.4348 12.6127C19.9048 12.4427 19.3848 12.2727 18.8648 12.0927C17.7848 11.7227 16.7148 11.3227 15.6448 10.9027C14.5748 10.4827 13.4448 10.0027 12.3548 9.5127C11.7248 9.2227 10.7248 8.4527 10.0648 9.0427C9.7948 9.2827 9.76481 9.6127 9.68481 9.9427C9.57481 10.3927 9.42481 10.8427 9.24481 11.2627C8.90481 12.0627 8.43481 12.8127 7.87481 13.4827C6.74481 14.8227 5.2548 15.8527 3.5848 16.3927C2.8348 16.6327 1.9648 16.6127 1.2548 16.9127C0.984801 17.0227 0.704801 17.2227 0.614801 17.5027C0.554801 17.6827 0.574798 17.9127 0.564798 18.1027C0.474798 20.5027 0.504801 22.9227 0.504801 25.3227C0.504801 29.5727 0.5048 33.8227 0.5348 38.0827C0.5548 42.9427 0.584807 47.7927 0.604807 52.6527C0.634807 56.8727 0.654809 61.0927 0.684809 65.3027C0.704809 67.6427 0.714812 69.9727 0.734812 72.3127C0.734812 72.7027 0.734799 73.0827 0.924799 73.4427C1.4548 74.4527 3.21481 74.1727 4.18481 74.1827C6.91481 74.2227 9.65481 74.1927 12.3848 74.1427C15.4448 74.0827 18.4948 73.9827 21.5548 73.8327C23.8348 73.7127 26.1248 73.5927 28.3848 73.2727C28.7248 73.2227 29.0648 73.1827 29.3948 73.0927C30.0548 72.9227 30.2448 72.5027 30.2148 71.8427C30.1448 69.7727 29.8548 67.7127 29.4548 65.6827C28.6348 61.5427 27.3548 57.5127 26.4548 53.3927C25.5548 49.2727 25.0648 44.8327 25.9548 40.5527C26.1748 39.4627 26.4648 38.3827 26.7848 37.3227C26.9448 36.7927 27.1048 36.2527 27.2748 35.7227C27.4148 35.2627 27.6548 34.7727 27.6148 34.2827C27.5548 33.4027 26.6248 33.1527 25.9748 32.8227C25.1448 32.3927 24.3748 31.8527 23.6948 31.2127C22.2948 29.8927 21.4048 28.3027 20.8048 26.4927C20.6248 25.9427 20.1048 25.5527 19.5148 25.8327C19.1748 25.9927 18.9548 26.4027 18.7248 26.6827C18.4048 27.0727 18.0748 27.4627 17.7448 27.8527C16.4748 29.2927 15.0848 30.6727 13.4148 31.6427C12.5848 32.1327 11.6948 32.5127 10.7548 32.7327C10.0848 32.8927 9.58481 33.0527 9.57481 33.8227C9.52481 37.2427 8.98481 40.6427 8.48481 44.0227C7.68481 49.3727 6.7748 54.6927 5.8148 60.0127C4.9648 64.7627 4.07481 69.5027 3.10481 74.2327C2.82481 75.6027 2.48481 76.9727 2.21481 78.3427C2.07481 79.0427 2.40481 79.4427 3.07481 79.6127C4.17481 79.9027 5.2848 80.1527 6.3948 80.4127C8.6948 80.9527 10.9948 81.4627 13.3048 81.9527C17.9248 82.9227 22.5648 83.7727 27.2248 84.5027C28.3548 84.6827 29.4748 84.8527 30.6048 85.0127C31.1648 85.0927 31.7348 85.1727 32.2948 85.2527C32.8148 85.3227 33.4048 85.4827 33.9248 85.4627C34.8948 85.4227 34.8848 84.2827 35.0248 83.5627C35.2448 82.4027 35.4848 81.2527 35.7248 80.1027C37.6548 70.9127 40.2048 61.8827 43.0948 52.9527C44.5448 48.4627 46.0748 44.0027 47.6248 39.5527C47.8148 39.0127 48.0048 38.4827 48.1848 37.9427C48.3148 37.5727 48.4748 37.2127 48.3048 36.8327C48.1848 36.5627 47.9548 36.3927 47.6748 36.3227C47.1948 36.1927 46.7348 36.1127 46.2848 35.9027C44.5148 35.0727 43.2848 33.4327 42.4748 31.7027C41.5448 29.7127 41.0548 27.5527 40.2048 25.5327C39.5048 23.8727 38.5648 22.3127 37.3348 20.9927C34.7148 18.1827 30.9048 17.0427 27.1748 18.0827C23.4448 19.1227 21.3148 21.9227 19.8648 25.2227L20.5648 25.4127C20.5648 24.9327 19.8148 24.9327 19.8148 25.4127C19.8148 25.7627 20.3548 25.9527 20.5148 25.6027C21.2248 23.9727 22.1148 22.3927 23.3748 21.1127C24.7348 19.7427 26.5048 18.8927 28.4048 18.5727C32.3748 17.8927 35.9248 19.9127 38.0948 23.1627C39.1948 24.8127 39.8648 26.6527 40.4848 28.5227C41.1048 30.3927 41.6948 32.2427 42.8248 33.8227C43.7648 35.1427 45.0248 36.2927 46.5848 36.8227C46.9548 36.9527 47.6148 36.9327 47.5848 37.3927C47.5648 37.6327 47.3848 37.9727 47.3048 38.2027C47.2148 38.4727 47.1148 38.7427 47.0248 39.0127C46.6448 40.0827 46.2748 41.1627 45.9048 42.2427C42.9848 50.6927 40.1948 59.1927 37.8848 67.8327C36.7348 72.1427 35.7048 76.4927 34.8048 80.8627C34.5748 81.9727 34.3548 83.0927 34.1448 84.2027C34.0548 84.6627 33.9748 84.7327 33.4648 84.6627C33.2248 84.6327 32.9848 84.5927 32.7348 84.5627C32.1748 84.4827 31.6048 84.4027 31.0448 84.3227C28.7948 84.0027 26.5448 83.6427 24.2948 83.2627C19.8848 82.5227 15.4848 81.6727 11.1148 80.7127C8.9248 80.2327 6.74481 79.7327 4.57481 79.2027C4.23481 79.1227 3.0148 79.0027 2.9248 78.6027C2.9048 78.5227 2.9848 78.3527 3.0048 78.2727C3.0648 78.0027 3.12481 77.7427 3.18481 77.4727C4.01481 73.7427 4.7248 69.9927 5.4248 66.2427C6.3948 61.0827 7.3148 55.9127 8.1748 50.7427C8.8948 46.3827 9.6048 42.0027 10.0848 37.6027C10.1648 36.8727 10.2348 36.1527 10.2848 35.4227C10.3148 34.9227 10.2648 34.3827 10.3248 33.8827C10.3648 33.5627 10.5448 33.5427 10.8548 33.4727C11.3248 33.3627 11.7848 33.2227 12.2348 33.0427C13.0148 32.7327 13.7548 32.3327 14.4448 31.8727C15.9348 30.8627 17.2248 29.5827 18.4048 28.2227C18.6948 27.8927 18.9748 27.5527 19.2548 27.2127C19.3748 27.0627 19.5348 26.7727 19.6948 26.6627C20.0448 26.4227 20.0948 26.7627 20.1848 27.0527C20.4348 27.8227 20.7648 28.5727 21.1848 29.2727C22.0448 30.7227 23.2248 31.9827 24.6348 32.9127C24.9748 33.1327 25.3248 33.3427 25.6848 33.5227C25.8548 33.6027 26.0248 33.6827 26.1848 33.7627C26.5248 33.9227 26.7848 34.0227 26.8248 34.4227C26.8748 34.9327 26.5548 35.5227 26.4048 36.0027C26.2248 36.5727 26.0548 37.1427 25.8848 37.7227C25.3148 39.7327 24.8748 41.7827 24.7448 43.8727C24.2548 51.9227 27.6748 59.5027 28.9848 67.3127C29.1648 68.3527 29.2948 69.4027 29.3848 70.4627C29.4248 70.9327 29.4548 71.4027 29.4648 71.8727C29.4748 72.2227 29.4348 72.3427 29.1048 72.4127C28.3548 72.5727 27.5848 72.6527 26.8248 72.7327C24.3648 72.9827 21.8948 73.1027 19.4348 73.2127C14.0248 73.4427 8.59481 73.5827 3.18481 73.4527C2.53481 73.4327 1.58481 73.5827 1.48481 72.7427C1.48481 72.6827 1.48481 72.6127 1.48481 72.5527C1.48481 72.2927 1.48481 72.0327 1.48481 71.7727C1.48481 70.7727 1.46481 69.7727 1.46481 68.7627C1.43481 65.3027 1.4148 61.8427 1.3948 58.3827C1.3648 53.8527 1.3348 49.3227 1.3148 44.7927C1.2948 40.2627 1.27481 35.8327 1.26481 31.3527C1.26481 27.9727 1.25481 24.6027 1.26481 21.2227C1.26481 20.2827 1.2748 19.3327 1.3048 18.3927C1.3048 18.1727 1.3448 17.9427 1.3348 17.7327C1.3348 17.6527 1.3348 17.7727 1.3348 17.7727C1.4648 17.7627 1.71481 17.5727 1.88481 17.5427C2.02481 17.5127 2.1748 17.5027 2.3148 17.4827C2.7548 17.4227 3.1848 17.3227 3.6148 17.1927C6.6048 16.3027 9.10481 13.9527 10.1548 11.0127C10.2848 10.6627 10.3248 10.2527 10.4648 9.9127C10.5648 9.6827 10.3448 9.5927 10.9048 9.6927C11.0048 9.7127 11.1348 9.8027 11.2248 9.8427C11.5148 9.9727 11.7948 10.1027 12.0848 10.2327C13.0148 10.6527 13.9448 11.0527 14.8948 11.4327C15.9148 11.8427 16.9548 12.2427 17.9948 12.6027C18.4748 12.7727 18.9648 12.9427 19.4448 13.1027C19.8748 13.2427 20.9448 13.3927 20.9448 13.9127C20.9448 14.1327 20.7548 14.4427 20.6848 14.6527C20.6148 14.8627 20.5448 15.0827 20.4848 15.2927C20.3348 15.7927 20.2048 16.3027 20.0848 16.8227C19.8848 17.7427 19.7348 18.6727 19.6448 19.6027C19.4448 21.5827 19.5148 23.5727 19.8248 25.5427C19.9048 26.0227 20.6248 25.8127 20.5448 25.3427V25.3127Z" fill="#C6A46B"/>
<path d="M20.5448 25.3127C20.1948 23.0827 20.1848 20.7827 20.5148 18.5527C20.6748 17.4727 20.9148 16.4027 21.2348 15.3627C21.4348 14.7127 22.0848 13.7027 21.5148 13.0827C21.2448 12.7927 20.7848 12.7327 20.4348 12.6127C19.9048 12.4427 19.3848 12.2727 18.8648 12.0927C17.7848 11.7227 16.7148 11.3227 15.6448 10.9027C14.5748 10.4827 13.4448 10.0027 12.3548 9.5127C11.7248 9.2227 10.7248 8.4527 10.0648 9.0427C9.7948 9.2827 9.76481 9.6127 9.68481 9.9427C9.57481 10.3927 9.42481 10.8427 9.24481 11.2627C8.90481 12.0627 8.43481 12.8127 7.87481 13.4827C6.74481 14.8227 5.2548 15.8527 3.5848 16.3927C2.8348 16.6327 1.9648 16.6127 1.2548 16.9127C0.984801 17.0227 0.704801 17.2227 0.614801 17.5027C0.554801 17.6827 0.574798 17.9127 0.564798 18.1027C0.474798 20.5027 0.504801 22.9227 0.504801 25.3227C0.504801 29.5727 0.5048 33.8227 0.5348 38.0827C0.5548 42.9427 0.584807 47.7927 0.604807 52.6527C0.634807 56.8727 0.654809 61.0927 0.684809 65.3027C0.704809 67.6427 0.714812 69.9727 0.734812 72.3127C0.734812 72.7027 0.734799 73.0827 0.924799 73.4427C1.4548 74.4527 3.21481 74.1727 4.18481 74.1827C6.91481 74.2227 9.65481 74.1927 12.3848 74.1427C15.4448 74.0827 18.4948 73.9827 21.5548 73.8327C23.8348 73.7127 26.1248 73.5927 28.3848 73.2727C28.7248 73.2227 29.0648 73.1827 29.3948 73.0927C30.0548 72.9227 30.2448 72.5027 30.2148 71.8427C30.1448 69.7727 29.8548 67.7127 29.4548 65.6827C28.6348 61.5427 27.3548 57.5127 26.4548 53.3927C25.5548 49.2727 25.0648 44.8327 25.9548 40.5527C26.1748 39.4627 26.4648 38.3827 26.7848 37.3227C26.9448 36.7927 27.1048 36.2527 27.2748 35.7227C27.4148 35.2627 27.6548 34.7727 27.6148 34.2827C27.5548 33.4027 26.6248 33.1527 25.9748 32.8227C25.1448 32.3927 24.3748 31.8527 23.6948 31.2127C22.2948 29.8927 21.4048 28.3027 20.8048 26.4927C20.6248 25.9427 20.1048 25.5527 19.5148 25.8327C19.1748 25.9927 18.9548 26.4027 18.7248 26.6827C18.4048 27.0727 18.0748 27.4627 17.7448 27.8527C16.4748 29.2927 15.0848 30.6727 13.4148 31.6427C12.5848 32.1327 11.6948 32.5127 10.7548 32.7327C10.0848 32.8927 9.58481 33.0527 9.57481 33.8227C9.52481 37.2427 8.98481 40.6427 8.48481 44.0227C7.68481 49.3727 6.7748 54.6927 5.8148 60.0127C4.9648 64.7627 4.07481 69.5027 3.10481 74.2327C2.82481 75.6027 2.48481 76.9727 2.21481 78.3427C2.07481 79.0427 2.40481 79.4427 3.07481 79.6127C4.17481 79.9027 5.2848 80.1527 6.3948 80.4127C8.6948 80.9527 10.9948 81.4627 13.3048 81.9527C17.9248 82.9227 22.5648 83.7727 27.2248 84.5027C28.3548 84.6827 29.4748 84.8527 30.6048 85.0127C31.1648 85.0927 31.7348 85.1727 32.2948 85.2527C32.8148 85.3227 33.4048 85.4827 33.9248 85.4627C34.8948 85.4227 34.8848 84.2827 35.0248 83.5627C35.2448 82.4027 35.4848 81.2527 35.7248 80.1027C37.6548 70.9127 40.2048 61.8827 43.0948 52.9527C44.5448 48.4627 46.0748 44.0027 47.6248 39.5527C47.8148 39.0127 48.0048 38.4827 48.1848 37.9427C48.3148 37.5727 48.4748 37.2127 48.3048 36.8327C48.1848 36.5627 47.9548 36.3927 47.6748 36.3227C47.1948 36.1927 46.7348 36.1127 46.2848 35.9027C44.5148 35.0727 43.2848 33.4327 42.4748 31.7027C41.5448 29.7127 41.0548 27.5527 40.2048 25.5327C39.5048 23.8727 38.5648 22.3127 37.3348 20.9927C34.7148 18.1827 30.9048 17.0427 27.1748 18.0827C23.4448 19.1227 21.3148 21.9227 19.8648 25.2227L20.5648 25.4127C20.5648 24.9327 19.8148 24.9327 19.8148 25.4127C19.8148 25.7627 20.3548 25.9527 20.5148 25.6027C21.2248 23.9727 22.1148 22.3927 23.3748 21.1127C24.7348 19.7427 26.5048 18.8927 28.4048 18.5727C32.3748 17.8927 35.9248 19.9127 38.0948 23.1627C39.1948 24.8127 39.8648 26.6527 40.4848 28.5227C41.1048 30.3927 41.6948 32.2427 42.8248 33.8227C43.7648 35.1427 45.0248 36.2927 46.5848 36.8227C46.9548 36.9527 47.6148 36.9327 47.5848 37.3927C47.5648 37.6327 47.3848 37.9727 47.3048 38.2027C47.2148 38.4727 47.1148 38.7427 47.0248 39.0127C46.6448 40.0827 46.2748 41.1627 45.9048 42.2427C42.9848 50.6927 40.1948 59.1927 37.8848 67.8327C36.7348 72.1427 35.7048 76.4927 34.8048 80.8627C34.5748 81.9727 34.3548 83.0927 34.1448 84.2027C34.0548 84.6627 33.9748 84.7327 33.4648 84.6627C33.2248 84.6327 32.9848 84.5927 32.7348 84.5627C32.1748 84.4827 31.6048 84.4027 31.0448 84.3227C28.7948 84.0027 26.5448 83.6427 24.2948 83.2627C19.8848 82.5227 15.4848 81.6727 11.1148 80.7127C8.9248 80.2327 6.74481 79.7327 4.57481 79.2027C4.23481 79.1227 3.0148 79.0027 2.9248 78.6027C2.9048 78.5227 2.9848 78.3527 3.0048 78.2727C3.0648 78.0027 3.12481 77.7427 3.18481 77.4727C4.01481 73.7427 4.7248 69.9927 5.4248 66.2427C6.3948 61.0827 7.3148 55.9127 8.1748 50.7427C8.8948 46.3827 9.6048 42.0027 10.0848 37.6027C10.1648 36.8727 10.2348 36.1527 10.2848 35.4227C10.3148 34.9227 10.2648 34.3827 10.3248 33.8827C10.3648 33.5627 10.5448 33.5427 10.8548 33.4727C11.3248 33.3627 11.7848 33.2227 12.2348 33.0427C13.0148 32.7327 13.7548 32.3327 14.4448 31.8727C15.9348 30.8627 17.2248 29.5827 18.4048 28.2227C18.6948 27.8927 18.9748 27.5527 19.2548 27.2127C19.3748 27.0627 19.5348 26.7727 19.6948 26.6627C20.0448 26.4227 20.0948 26.7627 20.1848 27.0527C20.4348 27.8227 20.7648 28.5727 21.1848 29.2727C22.0448 30.7227 23.2248 31.9827 24.6348 32.9127C24.9748 33.1327 25.3248 33.3427 25.6848 33.5227C25.8548 33.6027 26.0248 33.6827 26.1848 33.7627C26.5248 33.9227 26.7848 34.0227 26.8248 34.4227C26.8748 34.9327 26.5548 35.5227 26.4048 36.0027C26.2248 36.5727 26.0548 37.1427 25.8848 37.7227C25.3148 39.7327 24.8748 41.7827 24.7448 43.8727C24.2548 51.9227 27.6748 59.5027 28.9848 67.3127C29.1648 68.3527 29.2948 69.4027 29.3848 70.4627C29.4248 70.9327 29.4548 71.4027 29.4648 71.8727C29.4748 72.2227 29.4348 72.3427 29.1048 72.4127C28.3548 72.5727 27.5848 72.6527 26.8248 72.7327C24.3648 72.9827 21.8948 73.1027 19.4348 73.2127C14.0248 73.4427 8.59481 73.5827 3.18481 73.4527C2.53481 73.4327 1.58481 73.5827 1.48481 72.7427C1.48481 72.6827 1.48481 72.6127 1.48481 72.5527C1.48481 72.2927 1.48481 72.0327 1.48481 71.7727C1.48481 70.7727 1.46481 69.7727 1.46481 68.7627C1.43481 65.3027 1.4148 61.8427 1.3948 58.3827C1.3648 53.8527 1.3348 49.3227 1.3148 44.7927C1.2948 40.2627 1.27481 35.8327 1.26481 31.3527C1.26481 27.9727 1.25481 24.6027 1.26481 21.2227C1.26481 20.2827 1.2748 19.3327 1.3048 18.3927C1.3048 18.1727 1.3448 17.9427 1.3348 17.7327C1.3348 17.6527 1.3348 17.7727 1.3348 17.7727C1.4648 17.7627 1.71481 17.5727 1.88481 17.5427C2.02481 17.5127 2.1748 17.5027 2.3148 17.4827C2.7548 17.4227 3.1848 17.3227 3.6148 17.1927C6.6048 16.3027 9.10481 13.9527 10.1548 11.0127C10.2848 10.6627 10.3248 10.2527 10.4648 9.9127C10.5648 9.6827 10.3448 9.5927 10.9048 9.6927C11.0048 9.7127 11.1348 9.8027 11.2248 9.8427C11.5148 9.9727 11.7948 10.1027 12.0848 10.2327C13.0148 10.6527 13.9448 11.0527 14.8948 11.4327C15.9148 11.8427 16.9548 12.2427 17.9948 12.6027C18.4748 12.7727 18.9648 12.9427 19.4448 13.1027C19.8748 13.2427 20.9448 13.3927 20.9448 13.9127C20.9448 14.1327 20.7548 14.4427 20.6848 14.6527C20.6148 14.8627 20.5448 15.0827 20.4848 15.2927C20.3348 15.7927 20.2048 16.3027 20.0848 16.8227C19.8848 17.7427 19.7348 18.6727 19.6448 19.6027C19.4448 21.5827 19.5148 23.5727 19.8248 25.5427C19.9048 26.0227 20.6248 25.8127 20.5448 25.3427V25.3127Z" stroke="#C6A46B" mask="url(#path-1-outside-1_493_19)"/>
<path d="M33.0449 73.6826C33.0449 74.8703 33.0552 76.068 33.0752 77.2656L33.1055 78.3652H33.1045C33.1088 78.4373 33.1198 78.5523 33.1211 78.6484C33.1225 78.7551 33.1153 78.8811 33.0713 79.0059L33.0703 79.0049C32.8924 79.5375 32.3562 79.6859 31.917 79.7305C31.6852 79.754 31.445 79.7526 31.2334 79.748C31.1239 79.7457 31.0247 79.7419 30.9355 79.7402L30.6973 79.7422C21.3555 80.1928 11.9737 79.9729 2.66211 79.0918V79.0908C2.26127 79.0561 2.0752 78.7159 2.0752 78.4336C2.07526 78.29 2.1206 78.1337 2.23145 78.0137C2.31986 77.9181 2.43784 77.8587 2.57227 77.8438H2.70996C4.88793 78.0435 7.06435 78.2238 9.25 78.3535H9.25098C13.785 78.6331 18.329 78.7528 22.873 78.7129C25.1095 78.6929 27.3363 78.6328 29.5635 78.543L31.4229 78.4531H31.4238C31.4912 78.4501 31.5681 78.4529 31.6318 78.4551C31.7005 78.4575 31.7611 78.4596 31.8154 78.457C31.8413 78.4558 31.8618 78.4497 31.8779 78.4473C31.8772 78.4365 31.8773 78.4244 31.876 78.4111C31.8725 78.3758 31.8689 78.3437 31.8643 78.3037C31.8605 78.2713 31.856 78.2288 31.8555 78.1895V78.1904C31.7853 75.8259 31.7949 73.4512 31.7949 71.083L31.793 68.0088C31.7958 64.9364 31.8125 61.8684 31.835 58.8008C31.865 53.8603 31.9156 48.9699 31.9756 43.9697C32.0356 38.9691 32.1148 33.9684 32.2148 28.9678V28.9668C32.3048 24.7867 32.4056 20.6055 32.5557 16.4238V16.4229C32.6156 14.8933 32.6755 13.3609 32.7656 11.8281C32.7957 11.2462 32.836 10.6546 32.876 10.0752C32.8799 10.0153 32.8984 9.90173 32.917 9.78809C32.9374 9.66334 32.9616 9.51602 32.9824 9.37109C32.9857 9.34852 32.9873 9.32572 32.9902 9.30371C32.8806 9.37704 32.7594 9.45737 32.6357 9.53516C32.2291 9.79084 31.7792 10.0552 31.6768 10.1064L31.6719 10.1094C30.9948 10.4274 30.2643 10.6731 29.5225 10.8174C28.0995 11.0961 26.6032 11.0602 25.2012 10.6816L24.9219 10.6016C21.4861 9.546 19.6369 6.5599 18.6367 3.35742V3.35645C18.4957 2.90331 18.3642 2.4494 18.2432 1.98535L18.2422 1.9834C18.2313 1.94001 18.2213 1.87282 18.2119 1.81348C18.2016 1.74779 18.1902 1.67637 18.1777 1.60742C18.1748 1.59108 18.1699 1.57553 18.167 1.56055C18.1482 1.56837 18.1279 1.576 18.1074 1.58496C18.0398 1.61457 17.9728 1.64672 17.9111 1.6748C17.864 1.69628 17.8041 1.72137 17.7598 1.73633L17.7607 1.7373C16.7385 2.11178 15.6874 2.40471 14.6182 2.63672L14.6152 2.6377C13.627 2.83938 12.6278 2.99113 11.6279 3.08203H11.6211C11.5718 3.08511 11.4988 3.08467 11.4316 3.08496C11.3595 3.08527 11.2826 3.08639 11.21 3.08984C11.1832 3.09112 11.1583 3.09574 11.1357 3.09766C11.1372 3.10626 11.1394 3.11511 11.1406 3.12402C11.1418 3.13221 11.1426 3.14394 11.1436 3.15723L11.7236 8.73633V8.73828C11.7364 8.87 11.758 8.92907 11.7852 8.98047L11.9736 9.26367L11.9766 9.26855C12.2992 9.77688 12.702 10.4023 12.8018 11.084C12.8805 11.5934 12.8798 12.1282 12.8584 12.6504C12.8364 13.1856 12.7952 13.6824 12.7852 14.1777C12.7651 15.3005 12.7354 16.4057 12.7354 17.5225C12.7354 18.485 12.7994 19.4776 13.2676 20.2305C13.7433 20.9953 14.5922 21.5666 15.3916 22.0928L16.0039 22.4766C17.4457 23.3486 18.9718 24.0682 20.4824 24.8721L20.4805 24.877C20.6457 24.9679 20.75 25.1103 20.7832 25.2744C20.8152 25.4334 20.7763 25.5906 20.7031 25.7158C20.5665 25.9496 20.2601 26.1323 19.9248 25.9951L19.8574 25.9629C18.1664 25.063 16.3612 24.2394 14.7285 23.1611V23.1621C13.977 22.6711 13.1599 22.0943 12.5547 21.3848C11.9332 20.6561 11.6509 19.7842 11.5371 18.8838C11.4042 17.8404 11.4656 16.7738 11.4854 15.7676C11.4954 14.6174 11.5152 13.4574 11.5352 12.3086V12.3076C11.5377 12.1885 11.5443 12.0675 11.5498 11.9531C11.5554 11.8369 11.5605 11.7249 11.5605 11.6152C11.5605 11.4503 11.5494 11.2969 11.5176 11.1533L11.4785 11.0137C11.3681 10.6918 11.2006 10.3917 10.9961 10.0801C10.8031 9.78599 10.5492 9.46889 10.4785 9.02148L10.4775 9.01855C10.357 8.1845 10.3049 7.31117 10.2168 6.48926V6.48828L9.89648 3.43848V3.4375C9.88644 3.33704 9.87252 3.26436 9.85742 3.14355C9.84424 3.03811 9.83359 2.91803 9.8457 2.79199C9.86786 2.52315 9.97132 2.31243 10.1396 2.15918C10.3015 2.01186 10.5047 1.93558 10.6992 1.89258C10.8941 1.84954 11.1015 1.83491 11.2881 1.82715C11.4836 1.81903 11.6463 1.81765 11.7891 1.80371C12.9372 1.68493 14.0652 1.48694 15.1826 1.2002H15.1846C15.6986 1.07168 16.2124 0.923652 16.7158 0.755859L16.7197 0.753906C16.9284 0.687474 17.1537 0.584044 17.4199 0.477539C17.6712 0.377028 17.9538 0.277373 18.2236 0.253906L18.2266 0.25293C18.4858 0.233958 18.7039 0.298525 18.8789 0.431641C19.0477 0.5601 19.157 0.737586 19.2324 0.914062C19.308 1.09086 19.3577 1.28453 19.3975 1.45996L19.5059 1.93652L19.5068 1.93848C19.7551 2.87205 20.0417 3.78872 20.4248 4.67285V4.67383C21.133 6.3164 22.1742 7.81383 23.7012 8.70703L23.9648 8.85352C25.2966 9.55679 26.8299 9.83209 28.334 9.71387L28.6279 9.68262C29.3143 9.5996 29.9896 9.43396 30.6338 9.17969C31.3915 8.88234 31.9629 8.41951 32.6875 7.94336C32.9922 7.74082 33.3551 7.7053 33.6582 7.83203C33.9666 7.9611 34.1914 8.24988 34.2246 8.63965L34.2285 8.84082C34.226 8.90605 34.2204 8.96946 34.2139 9.0293C34.1992 9.16449 34.1841 9.25243 34.1738 9.36523V9.36621C33.9047 12.2569 33.8355 15.1674 33.7354 18.0713C33.5854 22.5793 33.4853 27.0876 33.4053 31.5967V31.5977C33.3053 36.8168 33.2248 42.2658 33.1748 47.2549C33.1373 50.9974 33.1 54.7396 33.0752 58.4814L33.0557 62.2236C33.0457 66.0444 33.0249 69.863 33.0449 73.6816V73.6826Z" fill="#C6A46B" stroke="#C6A46B" stroke-width="0.5"/>
<path d="M1.06543 16.9426C1.25676 16.9427 1.41687 17.0205 1.52539 17.1477C1.62932 17.2696 1.6748 17.4234 1.6748 17.5676C1.6748 17.7119 1.62932 17.8657 1.52539 17.9875C1.41687 18.1147 1.25676 18.1925 1.06543 18.1926C0.873945 18.1926 0.713076 18.1148 0.604492 17.9875C0.500645 17.8657 0.455078 17.7118 0.455078 17.5676C0.455078 17.4234 0.500645 17.2696 0.604492 17.1477C0.713076 17.0205 0.873945 16.9426 1.06543 16.9426Z" fill="#C6A46B" stroke="#C6A46B" stroke-width="0.5"/>
<path d="M5.54492 62.9036C5.70713 62.9121 5.84951 62.9894 5.95117 63.092C6.15282 63.2959 6.2485 63.6686 5.98145 63.969L5.97949 63.9709C5.65508 64.3268 5.36221 64.7217 5.07031 65.1311C4.7811 65.5368 4.48892 65.9623 4.17773 66.3616C3.55241 67.1639 2.81894 67.9002 1.74805 68.2786H1.74707C1.5664 68.3414 1.38807 68.3228 1.24316 68.2317C1.10533 68.1449 1.02012 68.0072 0.982422 67.8684C0.908143 67.5941 1.00403 67.2211 1.38086 67.0872L1.52832 67.0295C2.2552 66.7223 2.82489 66.1182 3.32422 65.4524C3.88543 64.6975 4.41975 63.8351 5.0791 63.1047L5.08008 63.1038L5.18359 63.012C5.29252 62.9337 5.41749 62.8969 5.54492 62.9036Z" fill="#C6A46B" stroke="#C6A46B" stroke-width="0.5"/>
</svg>
