<svg width="105" height="105" viewBox="0 0 105 105" fill="none" xmlns="http://www.w3.org/2000/svg">
<path d="M52.135 103.27C80.3761 103.27 103.27 80.3761 103.27 52.135C103.27 23.8939 80.3761 1 52.135 1C23.8939 1 1 23.8939 1 52.135C1 80.3761 23.8939 103.27 52.135 103.27Z" stroke="#C6A46B" stroke-width="2" stroke-miterlimit="10"/>
<path d="M67.5298 52.4027L51.8127 78.9159L36.5642 52.1182C29.7686 40.1671 38.4054 25.3539 52.1475 25.3706C66.0066 25.3874 74.5933 40.4684 67.5298 52.4027Z" stroke="#C6A46B" stroke-width="2" stroke-miterlimit="10"/>
<path d="M52.1327 50.2603C56.0245 50.2603 59.1794 47.1053 59.1794 43.2135C59.1794 39.3217 56.0245 36.1667 52.1327 36.1667C48.2409 36.1667 45.0859 39.3217 45.0859 43.2135C45.0859 47.1053 48.2409 50.2603 52.1327 50.2603Z" stroke="#C6A46B" stroke-width="2" stroke-miterlimit="10"/>
</svg>
